FFmpeg version SVN-r25716, Copyright (c) 2000-2010 the FFmpeg developers  built on Nov 10 2010 12:23:18 with gcc 4.1.2 20080704 (Red Hat 4.1.2-48)  configuration: --enable-libmp3lame --enable-shared --disable-mmx --arch=x86_64  libavutil     50.33. 0 / 50.33. 0  libavcore      0.12. 1 /  0.12. 1  libavcodec    52.94. 4 / 52.94. 4  libavformat   52.84. 0 / 52.84. 0  libavdevice   52. 2. 2 / 52. 2. 2  libavfilter    1.59. 0 /  1.59. 0  libswscale     0.12. 0 /  0.12. 0Seems stream 0 codec frame rate differs from container frame rate: 1200.00 (1200/1) -> 30.00 (30/1)Input #0, mov,mp4,m4a,3gp,3g2,mj2, from '/RAID10/data/converted_video_files/42152.mov':  Metadata:    major_brand     : qt      minor_version   : 537199360    compatible_brands: qt    Duration: 00:00:18.66, start: 0.000000, bitrate: 4793 kb/s    Stream #0.0(eng): Video: h264, yuv420p, 720x480, 4792 kb/s, PAR 10:11 DAR 15:11, 30 fps, 30 tbr, 600 tbn, 1200 tbc[buffer @ 0x4990da0] w:720 h:480 pixfmt:yuv420pOutput #0, flv, to '/RAID10/data/converted_video_files/42152.flv':  Metadata:    encoder         : Lavf52.84.0    Stream #0.0(eng): Video: flv, yuv420p, 720x480 [PAR 10:11 DAR 15:11], q=2-31, 600 kb/s, 1k tbn, 24 tbcStream mapping:  Stream #0.0 -> #0.0Press [q] to stop encodingframe=   28 fps=  0 q=5.8 size=     305kB time=1.17 bitrate=2139.9kbits/s dup=0 drop=6    frame=   60 fps= 56 q=9.2 size=     419kB time=2.50 bitrate=1371.5kbits/s dup=0 drop=15    frame=   95 fps= 60 q=10.6 size=     542kB time=3.96 bitrate=1121.9kbits/s dup=0 drop=23    frame=  129 fps= 62 q=11.2 size=     680kB time=5.38 bitrate=1036.5kbits/s dup=0 drop=32    frame=  166 fps= 63 q=11.6 size=     779kB time=6.92 bitrate= 922.6kbits/s dup=0 drop=41    frame=  197 fps= 63 q=10.6 size=     875kB time=8.21 bitrate= 873.3kbits/s dup=0 drop=49    frame=  232 fps= 64 q=11.3 size=     965kB time=9.67 bitrate= 817.9kbits/s dup=0 drop=57    frame=  269 fps= 65 q=9.8 size=    1083kB time=11.21 bitrate= 791.3kbits/s dup=0 drop=67    frame=  307 fps= 66 q=9.9 size=    1201kB time=12.79 bitrate= 768.9kbits/s dup=0 drop=76    frame=  340 fps= 66 q=11.8 size=    1292kB time=14.17 bitrate= 747.0kbits/s dup=0 drop=84    frame=  375 fps= 67 q=11.9 size=    1391kB time=15.62 bitrate= 729.5kbits/s dup=0 drop=93    frame=  411 fps= 66 q=9.5 size=    1496kB time=17.12 bitrate= 715.5kbits/s dup=0 drop=102    frame=  446 fps= 67 q=8.7 size=    1600kB time=18.58 bitrate= 705.3kbits/s dup=0 drop=111    frame=  448 fps= 67 q=8.2 Lsize=    1603kB time=18.67 bitrate= 703.6kbits/s dup=0 drop=112    video:1596kB audio:0kB global headers:0kB muxing overhead 0.451439%